<svg xmlns="http://www.w3.org/2000/svg" xmlns:xlink="http://www.w3.org/1999/xlink" viewBox="0 0 175.8 123.8" xmlns:v="https://vecta.io/nano"><use xlink:href="#A" opacity=".9" fill="#3983ed"/><path d="M59.057 45.805l-1.236 2.831q-1.799-.765-3.161.945-1.285 1.613-.307 2.393.387.309.855.207.466-.121 1.621-1.24 1.73-1.663 2.764-2.299 1.034-.635 2.209-.543 1.183.081 2.302.973 1.678 1.337 1.712 3.456.043 2.109-1.782 4.399-3.308 4.151-7.166 2.395l1.753-3.016q1.728.832 3.382-1.243.634-.796.791-1.567.147-.78-.337-1.166-.753-.6-1.861.504-3.031 2.965-4.712 3.331-1.683.347-3.21-.87-1.549-1.234-1.6-3.244-.051-2.01 1.68-4.182 1.371-1.721 2.871-2.213 1.5-.493 3.432.15z" fill="#fff"/><path d="M86.487 32.527a11.81 11.81 0 0 1-11.812 11.812c-6.523 0-11.812-5.288-11.812-11.812s5.288-11.812 11.812-11.812a11.81 11.81 0 0 1 11.812 11.812" opacity=".9" fill="#3983ed"/><path d="M77.127 24.275L66.396 30.8l1.745 2.805 3.664-2.228 5.622 9.269L80.8 38.6l-5.624-9.272 3.696-2.247z" opacity=".9" fill="#fff"/><path d="M112.886 32.596c0 6.523-5.288 11.812-11.812 11.812a11.81 11.81 0 1 1 0-23.624c6.523 0 11.812 5.288 11.812 11.812" opacity=".9" fill="#3983ed"/><path d="M108.244 31.901l-5.716-3.984-1.713 2.459 4.496 3.133-1.573 2.257-4.496-3.133-1.823 2.616 5.716 3.984-1.652 2.371-8.569-5.972 8.353-11.985 8.569 5.972z" fill="#fff"/><use xlink:href="#A" x="59.198" y=".03" opacity=".9" fill="#3983ed"/><path d="M111.757 56.06l5.827-9.362-7.931 6.968-1.678-1.91 9.726-8.546 3.118 3.548-4.325 6.818 7.399-3.319 3.124 3.556-9.726 8.546-2.016-2.294 7.931-6.968-10.078 4.524z" fill="#fff"/><g fill="#3983ed"><path d="M74.443 63.354c-.39-.599-.437-1.115-.189-2.059.115-.436.218-.654.669-1.418.74-1.251 1.611-2.259 3.192-3.693l.664-.649c-.005-.021-.318-.327-.696-.682-2.175-2.044-3.63-4.112-3.841-5.462-.105-.672-.04-1.116.234-1.592.306-.532.681-.808 1.396-1.028 1.44-.444 3.791-.185 6.57.722l.875.243c.048-.01.162-.372.286-.905.466-2.013.978-3.395 1.729-4.668.768-1.303 1.32-1.794 2.223-1.979.712-.146 1.422.105 2.056.727.447.438 1.132 1.549 1.517 2.46.216.511.529 1.509.819 2.61l.489 1.794c.011.007.641-.159 1.4-.368 3.331-.918 5.559-.961 6.786-.131.863.584 1.115 1.475.769 2.714-.18.646-1.052 2.099-1.744 2.907a23.76 23.76 0 0 1-2.194 2.225c-.32.284-.57.548-.557.586s.257.283.542.544c3.594 3.292 4.893 6.22 3.39 7.64-1.152 1.089-3.959 1.022-7.725-.187l-.795-.239c-.015.004-.135.453-.265.996-.53 2.207-.892 3.197-1.648 4.493-.607 1.04-.893 1.38-1.486 1.761-1.214.78-2.552.286-3.597-1.33-.671-1.038-1.179-2.369-1.704-4.463l-.377-1.502-1.216.352c-3.222.933-5.532 1.01-6.863.229-.406-.238-.497-.321-.709-.647zm13.395-2.738c.348-.091 3.992-2.15 4.236-2.394.131-.131.209-1.572.184-3.408l-.019-1.464c-.002-.192-.026-.215-.657-.632-.843-.558-2.808-1.71-3.337-1.956l-.409-.191-.475.241-3.134 1.778-.765.476-.034.762c-.066 1.48-.046 4.116.033 4.277.021.043.984.634 2.139 1.312l2.236 1.199z" opacity=".9"/><path d="M69.185 62.988c-.836-.01-1.462.229-1.727.743-.318.615-.279 1.607.091 2.341.197.391 1.276 1.571 2.925 3.2 4.02 3.97 7.121 8.041 8.854 11.623 1.753 3.622 1.97 8.664 2.027 9.809 0 0-.029 1.647-.239 2.576s-.719 2.667-.719 2.667c-1.162 4.418-2.286 6.832.333 7.09h.001c.6.059 3.833.059 7.135.026l7.135-.026H95c2.619-.259 1.495-2.673.333-7.09 0 0-.509-1.737-.719-2.667s-.239-2.576-.239-2.576c.057-1.145.274-6.187 2.027-9.809 1.734-3.583 4.834-7.653 8.854-11.623 1.649-1.628 2.728-2.809 2.925-3.2.371-.734.409-1.726.091-2.341-.266-.514-.891-.752-1.727-.743-1.394.016-3.373.722-5.248 1.994-2.777 1.884-7.983 7.183-11.929 12.143-.805 1.011-1.323 1.56-1.502 1.595-.179-.035-.697-.583-1.502-1.595-3.946-4.96-9.152-10.26-11.929-12.143-1.875-1.272-3.855-1.978-5.248-1.994z" opacity=".9" fill-opacity=".902"/></g><defs><path id="A" d="M70.113 52.548c0 6.523-5.288 11.812-11.812 11.812s-11.812-5.288-11.812-11.812 5.288-11.812 11.812-11.812 11.812 5.288 11.812 11.812"/></defs><path d="M86.731 60.01c-1.551-.837-3.229-1.859-3.272-1.992-.048-.146-.04-4.219.009-4.642l.037-.319.448-.273 3.579-2.028.333-.168.655.343c1.192.625 3.401 1.98 3.608 2.215.096.108.1.238.077 2.408l-.088 2.492c-.057.179-.154.251-1.037.776l-3.221 1.739c-.061-.002-.568-.25-1.127-.551z" fill="#fff"/></svg>