<?xml version="1.0" encoding="UTF-8" standalone="no"?>
<svg
   viewBox="0 0 22 22.000001"
   version="1.1"
   id="svg940"
   sodipodi:docname="icon--link-connected.svg"
   inkscape:version="1.1 (c68e22c387, 2021-05-23)"
   width="22"
   height="22"
   xmlns:inkscape="http://www.inkscape.org/namespaces/inkscape"
   xmlns:sodipodi="http://sodipodi.sourceforge.net/DTD/sodipodi-0.dtd"
   xmlns="http://www.w3.org/2000/svg"
   xmlns:svg="http://www.w3.org/2000/svg"
   xmlns:rdf="http://www.w3.org/1999/02/22-rdf-syntax-ns#"
   xmlns:cc="http://creativecommons.org/ns#"
   xmlns:dc="http://purl.org/dc/elements/1.1/">
  <sodipodi:namedview
     id="namedview942"
     pagecolor="#505050"
     bordercolor="#ffffff"
     borderopacity="1"
     inkscape:pageshadow="0"
     inkscape:pageopacity="0"
     inkscape:pagecheckerboard="1"
     showgrid="false"
     inkscape:zoom="15.547302"
     inkscape:cx="31.548882"
     inkscape:cy="21.579307"
     inkscape:window-width="1920"
     inkscape:window-height="1027"
     inkscape:window-x="3832"
     inkscape:window-y="-8"
     inkscape:window-maximized="1"
     inkscape:current-layer="svg940" />
  <defs
     id="defs924">
    <style
       id="style922">.a{fill:#ffbc47;}.b{fill:#cf8b17;}.c{fill:#ffab19;}.d{fill:#fff;}</style>
  </defs>
  <title
     id="title926">scratch-arduino-link</title>
  <path
     class="b"
     d="M 43.130019,14.581437"
     id="path930"
     style="stroke-width:0.0745647" />
  <g
     id="g3098"
     transform="translate(-42.636411,3.8929061)">
    <path
       class="d"
       d="m 59.620757,3.5197574 c 0,0.1066276 0,0.1722446 0,0.2371159 0.01939,0.4831795 -0.122286,0.9268397 -0.33405,1.35335 a 3.5932748,3.5932748 0 0 1 -0.721787,0.996185 c -0.261722,0.2527744 -0.517479,0.5115141 -0.771745,0.771745 -0.212509,0.2177291 -0.469758,0.1804467 -0.647222,-0.02908 -0.01491,-0.017896 -0.04176,-0.039519 -0.03952,-0.056669 0.01491,-0.1215405 -0.0686,-0.2289138 -0.0507,-0.3482174 0.0261,-0.1744814 -0.03803,-0.3400152 -0.05518,-0.5092771 a 1.484584,1.484584 0 0 0 -0.14913,-0.503312 c -0.07456,-0.154349 -0.006,-0.2490463 0.07456,-0.3497087 0.06338,-0.078293 0.143164,-0.1439099 0.213255,-0.2169833 A 2.1877295,2.1877295 0 0 0 57.607505,4.2050078 1.8872336,1.8872336 0 0 0 57.7283,3.7307761 C 57.75141,3.5652423 57.70518,3.4071651 57.7246,3.2468509 57.7343,3.1670669 57.68657,3.1111431 57.66644,3.0447805 A 1.5919572,1.5919572 0 0 0 57.04457,2.2014532 1.3630434,1.3630434 0 0 0 56.23256,1.9360028 2.3189634,2.3189634 0 0 0 55.515993,2.0239888 1.3115938,1.3115938 0 0 0 55.255016,2.1731182 1.8410034,1.8410034 0 0 0 54.893377,2.4564643 c -0.507785,0.5130054 -1.025265,1.0163174 -1.527085,1.5352879 a 1.4435734,1.4435734 0 0 0 -0.401904,0.8082818 1.4040541,1.4040541 0 0 0 -0.03877,0.3497087 c 0.04176,0.3981757 0.128997,0.7784558 0.447388,1.0618019 0.101408,0.090969 0.18343,0.1998335 0.307207,0.2691787 0.09693,0.054432 0.167771,0.3444891 0.118558,0.4473884 -0.0343,0.074565 -0.02759,0.1491295 -0.05592,0.2236942 a 0.88955735,0.88955735 0 0 1 -0.187903,0.310935 C 53.401312,7.6208181 53.240252,7.7729302 53.088886,7.9324988 A 0.47124916,0.47124916 0 0 1 52.667595,8.0696979 0.42874726,0.42874726 0 0 1 52.443901,7.936227 C 52.294771,7.80723 52.129983,7.7028394 52.002477,7.5514729 A 4.5484491,4.5484491 0 0 1 51.398503,6.6850307 3.9139032,3.9139032 0 0 1 51.083094,5.7902538 3.2062838,3.2062838 0 0 1 51.025679,5.0162718 5.3835742,5.3835742 0 0 1 51.108446,4.375015 C 51.150202,4.0588605 51.279199,3.7784971 51.41267,3.497388 A 2.116893,2.116893 0 0 1 51.704964,3.0209193 C 52.260471,2.3736974 52.898,1.807751 53.494518,1.1963201 53.595926,1.0919295 53.692114,0.98231934 53.798742,0.88165694 54.182005,0.5207636 54.642815,0.29930632 55.133451,0.14421166 a 2.2115902,2.2115902 0 0 1 0.802316,-0.1133384 2.9259204,2.9259204 0 0 0 0.357911,0 c 0.386246,-0.02386072 0.745648,0.09171463 1.097593,0.22369422 a 3.0273284,3.0273284 0 0 1 0.732226,0.386991 3.7073589,3.7073589 0 0 1 0.756086,0.71507582 3.8102582,3.8102582 0 0 1 0.424274,0.6710827 4.7102546,4.7102546 0 0 1 0.267687,0.7598147 c 0.07456,0.2565027 0.03057,0.5144967 0.04921,0.7322257 z"
       id="path936"
       style="stroke-width:0.0745647" />
    <path
       class="d"
       d="m 51.304551,11.864297 c -0.131233,0 -0.262467,-0.0045 -0.393701,0 -0.283346,0.01193 -0.544323,-0.08426 -0.802317,-0.175227 A 3.2174685,3.2174685 0 0 1 49.265951,11.249138 3.5791075,3.5791075 0 0 1 48.121383,9.9032448 4.2583923,4.2583923 0 0 1 47.831326,9.008468 C 47.750796,8.6356443 47.78435,8.2628206 47.794789,7.8899969 a 2.1981685,2.1981685 0 0 1 0.157332,-0.6792848 4.1390887,4.1390887 0 0 1 0.521953,-0.9797807 1.4912948,1.4912948 0 0 1 0.313917,-0.3303218 1.0058783,1.0058783 0 0 0 0.1029,-0.099171 C 49.156341,5.535988 49.4203,5.2683006 49.688734,5.0050871 49.912428,4.787358 50.210687,4.8701249 50.319551,5.1668926 a 0.59651792,0.59651792 0 0 1 0.03877,0.2236942 2.7462194,2.7462194 0 0 0 0.116321,0.7627973 2.8498644,2.8498644 0 0 0 0.113338,0.386991 c 0.04921,0.1200492 -0.01417,0.2318963 -0.100662,0.321374 -0.08649,0.089478 -0.178955,0.1782097 -0.273653,0.2669418 a 1.714989,1.714989 0 0 0 -0.454845,0.7023998 1.6299852,1.6299852 0 0 0 -0.08277,0.4473885 1.7895538,1.7895538 0 0 0 0.223694,0.9320592 c 0.0604,0.1155753 0.161805,0.1879031 0.240098,0.283346 0.192377,0.2333876 0.455591,0.3482173 0.729989,0.4473885 a 0.55923555,0.55923555 0 0 0 0.174482,0.023115 0.31540885,0.31540885 0 0 1 0.173735,0.028335 0.14912948,0.14912948 0 0 0 0.104391,0.014913 1.9528505,1.9528505 0 0 0 0.994694,-0.3668584 6.3812504,6.3812504 0 0 0 0.609939,-0.5719116 C 53.272307,8.731088 53.61605,8.3910728 53.950846,8.0428555 54.155899,7.830346 54.334109,7.595467 54.413147,7.3024276 54.555566,6.773018 54.501137,6.2704516 54.163356,5.8282827 A 1.3130851,1.3130851 0 0 0 53.748038,5.4435277 0.21772904,0.21772904 0 0 1 53.6347,5.252642 C 53.6429,5.1035125 53.6086,4.954383 53.66378,4.7970514 A 1.3518587,1.3518587 0 0 1 54.111168,4.195314 2.2615486,2.2615486 0 0 0 54.399734,3.935083 0.29825896,0.29825896 0 0 1 54.740495,3.85157 0.53761178,0.53761178 0 0 1 55.026823,4.0230689 c 0.07009,0.091715 0.181938,0.1282514 0.262468,0.209527 a 3.8520145,3.8520145 0 0 1 0.823941,1.2042205 3.945966,3.945966 0 0 1 0.228168,0.7456474 c 0.07456,0.3429978 0.04996,0.6882326 0.03281,1.0260108 A 2.7626236,2.7626236 0 0 1 56.15797,8.0890847 3.6969198,3.6969198 0 0 1 55.763523,8.8131083 3.0780325,3.0780325 0 0 1 55.430219,9.2239601 C 54.843394,9.820478 54.25657,10.412522 53.657815,10.994127 a 3.4419084,3.4419084 0 0 1 -0.738937,0.510768 3.5045428,3.5045428 0 0 1 -1.010352,0.345981 c -0.194614,0.04026 -0.404141,0.0075 -0.606957,0.0075 z"
       id="path938"
       style="stroke-width:0.0745647" />
  </g>
  <metadata
     id="metadata1001">
    <rdf:RDF>
      <cc:Work
         rdf:about="">
        <dc:title>scratch-arduino-link</dc:title>
      </cc:Work>
    </rdf:RDF>
  </metadata>
  <path
     id="path1964"
     style="fill:#ffffff;stroke-width:0.0730899"
     class="a"
     d="m 19.45912,0.16121649 -16.9320987,0.0045 a 1.5633172,1.653894 0 0 0 -1.56123502,1.33972901 2.6860631,2.8416907 0 0 0 -0.04691,0.573613 v 15.4030465 0.451063 c 7.16e-4,0.318751 0.05329,0.257083 0.05329,0.575834 0.01236,-0.0029 0.02113,0.0018 0.02804,0.01003 a 2.6015018,2.75223 0 0 0 -0.01737,-0.276885 0.38159151,0.4037005 0 0 0 0.05399,0.183339 c 0.314798,0.61119 0.797988,0.947256 1.457424,0.957784 0.857691,0.01353 1.716145,0.01879 2.573837,-0.0038 a 0.90530267,0.95775509 0 0 1 0.812886,0.414978 c 0.387276,0.541276 0.789469,1.07136 1.184562,1.60662 0.190441,0.258609 0.424922,0.438157 0.7468231,0.438157 h 6.3953896 a 0.75394519,0.797628 0 0 0 0.497426,-0.199162 1.9363815,2.0485733 0 0 0 0.284239,-0.311996 c 0.397935,-0.540521 0.80593,-1.073465 1.19747,-1.61925 a 0.71912587,0.76079125 0 0 1 0.625936,-0.327126 c 0.892513,0.0067 1.784309,0 2.676821,0 0.800134,-0.0045 1.414785,-0.526244 1.581775,-1.35319 0.0022,-0.481131 0.0064,-0.961438 0.0064,-1.44257 -0.0014,-4.914069 -2.11e-4,-9.8268361 0.0036,-14.7384005 A 1.5867669,1.6787024 0 0 0 19.459069,0.16119749 Z M 1.0002073,18.518952 a 2.6015018,2.75223 0 0 1 -0.0046,0.210956 c 0,0.05163 0.04653,-0.161625 0.0046,-0.210956 z M 3.5476753,2.1153615 H 18.410569 c 0.187505,0 0.37502,0.0188 0.545024,0.133932 0.20188,0.13389 0.276236,0.340743 0.305614,0.576389 a 0.67876831,0.72701863 0 0 1 0,0.09646 V 16.80102 a 0.75752032,0.81136885 0 0 1 -0.312415,0.661471 0.53751448,0.57572376 0 0 1 -0.350024,0.11103 h -2.714433 a 0.73689487,0.7892772 0 0 0 -0.61192,0.305337 c -0.15563,0.207526 -0.298831,0.426473 -0.457586,0.630655 -0.267508,0.344094 -0.499986,0.714911 -0.781243,1.048965 a 0.58251566,0.62392387 0 0 1 -0.467439,0.200827 H 12.18603 8.9315714 c -0.108753,0 -0.218719,0.01404 -0.326848,0.01873 A 0.64126725,0.68685181 0 0 1 8.0422124,19.510308 C 7.7809554,19.134527 7.5119683,18.764949 7.2352933,18.401663 7.1071653,18.232295 6.9890443,18.05419 6.8540413,17.888838 6.6940363,17.69336 6.5128073,17.57356 6.2628003,17.574897 c -0.890024,0.0031 -1.77944,-0.0047 -2.669464,0.0039 a 0.71689424,0.76785482 0 0 1 -0.719342,-0.77905 c 0.0068,-1.755957 0,-3.512605 0,-5.268562 V 9.812699 2.8657645 c -0.05563,-0.401668 0.31242,-0.745745 0.673681,-0.750432 z" />
</svg>
