<svg xmlns="http://www.w3.org/2000/svg" width="25" height="25" viewBox="0 0 6.615 6.615" xmlns:v="https://vecta.io/nano"><path d="M1.081.558C.993.559.904.595.838.664L.817.685c-.134.138-.13.357.009.492l4.461 4.308c.138.134.357.129.492-.009l.02-.021c.134-.138.13-.357-.009-.492l-.949-.916a1.59 1.59 0 0 0 .207-.703h.004v-.792h-.001V2.12H4.61v-.98c.006-.108-.035-.214-.112-.291a.42.42 0 0 0-.296-.123c-.111 0-.218.044-.295.123a.39.39 0 0 0-.112.291v.981h-.834V1.14a.39.39 0 0 0-.12-.28.412.412 0 0 0-.289-.116h0a.412.412 0 0 0-.288.115c-.077.074-.12.174-.12.28v.305L1.328.656a.345.345 0 0 0-.247-.098zm.625 1.97v.024h-.003v.628l-.004.089c.001.744.523 1.391 1.268 1.572v.799a.393.393 0 0 0 .196.36.422.422 0 0 0 .422 0 .393.393 0 0 0 .196-.36v-.798a1.715 1.715 0 0 0 .245-.082z" fill="red"/></svg>