<svg xmlns="http://www.w3.org/2000/svg" width="64" height="64" fill="#fff" xmlns:v="https://vecta.io/nano"><path d="M6.481 8.436a2.31 2.31 0 0 0-1.616.659l-.094.092-.015.017-.094.094a2.31 2.31 0 0 0-.676 1.631v3.754l-.018 3.49a2.29 2.29 0 0 0 .092.9h-.176l-2.184.035c-.036.019-.097.088-.138.154l-.075.119.002 4.599.066 4.741c.131.288-.08.264 2.391.264h.242l-.009.202c.006.094.022 1.57.022 6.351v3.258h-.07c-.454 0-.551.01-.698.073-.166.071-.171.078-.193.257-.012.101-.022 1.938-.022 4.085v3.903l.147.099c.132.088.183.096.632.11l-.011 4.809v.94a2.31 2.31 0 0 0 .676 1.631l.094.094.015.017.094.092a2.31 2.31 0 0 0 1.616.659h25.851 25.85a2.31 2.31 0 0 0 1.28-.388l.121-.081.132-.09a2.31 2.31 0 0 0 1.014-1.951l-.011-.647.186-.198.364-.404c.408-.449.485-.396.883-1.095h-.002a11.4 11.4 0 0 0 .257-.685l.031-.18.013-.141.007-.136.005-.266.011-.861.018-2.977.022-8.982-.004-9.031-.011-3.04-.009-.902-.005-.281c-.002-.08.052.115-.037-.419-.024-.146-.325-1.043-.632-1.416-.225-.273-.425-.443-.648-.648l-.031-3.547-.035-3.095-.02-.99-.009-.312-.005-.132c-.003-.051.056.086-.057-.408v-.002c-.163-.713-.579-1.157-.837-1.425l-1.1-1.054-.448-.432h-.002c-.233-.239-1.312-.811-1.67-.861s-.236-.021-.263-.022l-.062-.002-.127-.002-.41-.002-1.502-.006-5.429-.009-17.7-.009zm3.622 5.951h21.978l20.86.011 2.303.015.015 3.359.017 4.425a2.31 2.31 0 0 0 .452 1.365l.141.191.002.002a5.21 5.21 0 0 0 .211.264c.072.085.05.106.358.367-.001-.001.088.085.127.121l.015 1.049.031 10.651.028 11.874-.026.026-.479.507-.303.325-.149.174-.13.176c-.02.029-.055.092-.084.141-.025.03-.046.063-.072.097H32.457 9.927l-.007-2.611 1.42-.02 3.174-.026.452-.022s.1-.022.118-.039l.075-.068-.002-3.596-.009-3.108-.02-.474a.47.47 0 0 0-.037-.162c-.032-.071-.051-.107-.086-.129s-.087-.028-.187-.039c-.114-.012-1.705-.031-3.536-.042l-1.396-.015.006-3.705.009-6.429a2.09 2.09 0 0 0-.004-.107h1.339 3.045l.077-.167.077-.169.005-4.638.005-4.638-.086-.132-.084-.132-3.053-.009-1.185-.004c.08-.27.119-.557.092-.856l-.007-.18-.018-2.645zM55.69 49.131c-.048.048-.131.189-.198.268.006-.009.018-.034.024-.042l.114-.158.061-.068zm-.527 1.352l-.011.11a5.58 5.58 0 0 0 .009-.107zm5.762.823c0-.001-.028.39-.057.514-.003.013-.006.017-.009.029a7.24 7.24 0 0 0 .066-.544zm-.237 1.139l-.378.472a3.4 3.4 0 0 0 .209-.288z"/><rect width="28.835" height="8.674" x="21.49" y="36.884" rx="1.993"/><path d="M28.648 17.55c-4.362 0-7.971 3.455-7.971 7.73s3.609 7.73 7.969 7.73c.396 0 .802-.024 1.211-.082 2.714-.389 4.465-1.989 5.738-3.512 1.273 1.523 3.023 3.123 5.734 3.512.413.058.818.082 1.215.082 4.359 0 7.969-3.453 7.969-7.73s-3.611-7.73-7.973-7.73c-.4 0-.806.027-1.213.086-2.711.387-4.46 1.985-5.732 3.506-1.273-1.52-3.023-3.119-5.734-3.506h-.002a8.44 8.44 0 0 0-1.211-.086zm0 4.752a4.22 4.22 0 0 1 .541.043c1.721.248 2.958 1.861 3.627 2.936-.669 1.076-1.906 2.691-3.631 2.938a3.84 3.84 0 0 1-.539.039c-1.817 0-3.213-1.363-3.213-2.977s1.395-2.979 3.215-2.979zm13.893 0c1.818 0 3.215 1.366 3.215 2.979s-1.395 2.977-3.211 2.977a3.92 3.92 0 0 1-.541-.039c-1.725-.246-2.961-1.863-3.629-2.937.668-1.076 1.903-2.687 3.625-2.936.193-.026.38-.043.541-.043z"/></svg>