<?xml version="1.0" encoding="UTF-8" standalone="no"?>
<!-- Created with Inkscape (http://www.inkscape.org/) -->

<svg
   version="1.1"
   id="svg984"
   width="20"
   height="20"
   viewBox="0 0 20 20"
   sodipodi:docname="icon--connected.svg"
   inkscape:version="1.1 (c68e22c387, 2021-05-23)"
   xmlns:inkscape="http://www.inkscape.org/namespaces/inkscape"
   xmlns:sodipodi="http://sodipodi.sourceforge.net/DTD/sodipodi-0.dtd"
   xmlns="http://www.w3.org/2000/svg"
   xmlns:svg="http://www.w3.org/2000/svg">
  <defs
     id="defs988" />
  <sodipodi:namedview
     id="namedview986"
     pagecolor="#505050"
     bordercolor="#ffffff"
     borderopacity="1"
     inkscape:pageshadow="0"
     inkscape:pageopacity="0"
     inkscape:pagecheckerboard="1"
     showgrid="false"
     inkscape:zoom="14.968889"
     inkscape:cx="20.876633"
     inkscape:cy="11.523901"
     inkscape:window-width="1920"
     inkscape:window-height="1027"
     inkscape:window-x="3832"
     inkscape:window-y="-8"
     inkscape:window-maximized="1"
     inkscape:current-layer="g990" />
  <g
     inkscape:groupmode="layer"
     inkscape:label="Image"
     id="g990">
    <g
       id="g1799"
       transform="matrix(0.10259271,0,0,0.10259271,-1.5416799,-1.5416798)">
      <path
         style="fill:#000000"
         d="m 48.383914,204.10842 c -2.263848,-1.02805 -5.413848,-3.57012 -7,-5.64903 l -2.883912,-3.77985 -0.297958,-42.079 c -0.163876,-23.14345 -0.0304,-43.5446 0.296605,-45.33588 0.881219,-4.82713 7.133767,-10.885028 12.798576,-12.400132 l 4.702773,-1.257801 V 56.314132 19.021537 H 112.5 169 v 37.292595 37.292595 l 4.70278,1.257801 c 5.66481,1.515104 11.91735,7.573002 12.79857,12.400132 0.32701,1.79128 0.46048,22.19243 0.29661,45.33588 l -0.29796,42.079 -2.88391,3.77985 c -5.92136,7.76092 -3.62571,7.51823 -71.11609,7.51823 -56.465662,0 -60.242459,-0.11011 -64.116086,-1.8692 z m 52.663326,-29.58688 c 5.6829,-5.775 10.83665,-10.5 11.45276,-10.5 0.61611,0 5.71344,4.66767 11.32739,10.3726 l 10.20718,10.37259 6.44818,-6.62259 6.44817,-6.6226 -10.6984,-10.75 -10.69841,-10.75 10.73924,-10.77265 10.73925,-10.77264 -6.51185,-6.45396 -6.51184,-6.45396 -10.26153,10.2266 c -5.64384,5.62464 -10.69616,10.22661 -11.22738,10.22661 -0.53122,0 -5.58354,-4.60197 -11.22738,-10.22661 l -10.261531,-10.2266 -6.51184,6.45396 -6.51184,6.45396 10.74485,10.77827 10.74486,10.77828 -10.70545,10.70545 -10.70546,10.70545 6.2169,6.66809 c 3.41929,3.66745 6.2652,6.72247 6.32424,6.78892 0.059,0.0665 4.75699,-4.60417 10.439891,-10.37917 z M 150,65.521537 v -28.5 H 112.5 74.999999 v 28.5 28.5 H 112.5 150 Z m -65.000001,-9.5 v -9 h 9 H 103 v 9 9 h -9.000001 -9 z m 37.000001,0 v -9 h 9 9 v 9 9 h -9 -9 z"
         id="path1069" />
      <path
         style="fill:#ffffff;stroke-width:0"
         d="m 55.833498,205.24178 c -7.242416,-0.54201 -10.057314,-1.99297 -14.707993,-7.58133 l -2.645695,-3.17912 v -43.62775 c 0,-42.44486 0.0288,-43.68724 1.062267,-45.82209 2.253783,-4.6557 8.323528,-9.289169 13.768493,-10.510476 l 2.80582,-0.629348 V 56.565786 19.239905 H 112.5 168.88361 v 37.325881 37.32588 l 2.80582,0.629348 c 5.44496,1.221307 11.51471,5.854776 13.76849,10.510476 1.03345,2.13481 1.06227,3.37717 1.06227,45.7952 v 43.60085 l -2.97609,3.80357 c -3.29361,4.20938 -5.43359,5.57414 -10.19962,6.50475 -3.64635,0.71198 -108.713417,1.16433 -117.510982,0.50592 z m 44.113196,-29.17954 c 4.846716,-4.87004 9.722396,-9.58656 10.834836,-10.48115 l 2.02262,-1.62652 10.66264,10.57795 c 5.86446,5.81787 10.72774,10.47426 10.80729,10.34754 0.0796,-0.12673 3.0216,-3.18183 6.53786,-6.78912 l 6.3932,-6.55869 -10.6669,-10.67692 -10.66691,-10.67692 10.14925,-10.27097 c 5.58209,-5.64904 10.32963,-10.35887 10.55009,-10.46629 1.04674,-0.51003 -0.0717,-1.96588 -6.03468,-7.85544 l -6.4355,-6.35624 -8.12804,7.99627 c -13.64096,13.41983 -12.92064,12.83188 -14.4739,11.81414 -0.73125,-0.47913 -5.64744,-5.08688 -10.92486,-10.23945 l -9.595325,-9.3683 -6.495142,6.22271 c -3.572329,3.42248 -6.425923,6.42372 -6.341321,6.66942 0.181049,0.52577 3.317884,3.8393 13.492849,14.25284 l 7.460166,7.6351 -10.629562,10.63954 -10.629562,10.63953 6.297942,6.7128 c 3.463867,3.69203 6.456071,6.71279 6.649341,6.71279 0.193269,0 4.316899,-3.98457 9.163618,-8.85462 z M 150.17815,65.469121 V 36.876485 H 112.5 74.821853 V 65.469121 94.061758 H 112.5 150.17815 Z"
         id="path1598" />
      <path
         style="fill:#ffffff;stroke-width:0"
         d="m 84.976247,55.849169 v -8.81829 h 8.81829 8.818293 v 8.81829 8.818289 h -8.818293 -8.81829 z"
         id="path1637" />
      <path
         style="fill:#ffffff;stroke-width:0"
         d="m 122.38717,55.849169 v -8.81829 h 8.81829 8.81829 v 8.81829 8.818289 h -8.81829 -8.81829 z"
         id="path1676" />
    </g>
  </g>
</svg>
