<svg xmlns="http://www.w3.org/2000/svg" width="22" height="22" fill="red" xmlns:v="https://vecta.io/nano"><path d="M18.11 9.765l-.061.229c-.106.472-.358.864-.673 1.221a3.593 3.593 0 0 1-.955.775l-.945.546c-.262.155-.5.053-.618-.196-.01-.021-.03-.049-.024-.065.046-.114-.007-.239.041-.349.07-.162.051-.338.079-.506a1.485 1.485 0 0 0-.014-.525c-.032-.168.059-.242.163-.318.081-.059.176-.102.262-.154a2.188 2.188 0 0 0 .623-.516 1.887 1.887 0 0 0 .239-.427c.065-.154.061-.319.122-.468.03-.075-.002-.141-.004-.21a1.592 1.592 0 0 0-.382-.976 1.363 1.363 0 0 0-.716-.467 2.319 2.319 0 0 0-.715-.1 1.312 1.312 0 0 0-.291.077 1.841 1.841 0 0 0-.423.18l-1.872 1.088a1.444 1.444 0 0 0-.597.677 1.404 1.404 0 0 0-.128.328c-.063.395-.077.785.157 1.141.074.114.125.241.227.34.08.078.073.376-.001.463-.052.063-.065.137-.112.202a.89.89 0 0 1-.262.252l-.572.333a.471.471 0 0 1-.442.023.429.429 0 0 1-.182-.187c-.111-.163-.243-.307-.327-.486a4.548 4.548 0 0 1-.359-.993 3.914 3.914 0 0 1-.073-.946 3.206 3.206 0 0 1 .145-.762 5.384 5.384 0 0 1 .246-.598c.122-.295.319-.532.521-.769a2.117 2.117 0 0 1 .406-.385c.704-.481 1.466-.863 2.201-1.299l.375-.225c.464-.249.966-.344 1.48-.367a2.212 2.212 0 0 1 .804.098 2.926 2.926 0 0 0 .346.093c.379.077.697.282 1.002.5a3.027 3.027 0 0 1 .607.563 3.707 3.707 0 0 1 .545.886 3.81 3.81 0 0 1 .236.758 4.71 4.71 0 0 1 .062.803c.006.267-.104.505-.142.72zm-7.583 7.287l-.388.068c-.277.061-.551.012-.821-.033a3.217 3.217 0 0 1-.906-.287 3.579 3.579 0 0 1-1.361-1.127 4.258 4.258 0 0 1-.441-.831c-.144-.353-.176-.726-.23-1.095a2.198 2.198 0 0 1 .037-.696 4.139 4.139 0 0 1 .344-1.056 1.491 1.491 0 0 1 .252-.38 1.006 1.006 0 0 0 .084-.116l.647-.923c.182-.253.491-.224.649.05a.597.597 0 0 1 .077.214 2.746 2.746 0 0 0 .247.731 2.85 2.85 0 0 0 .179.361c.069.11.026.231-.043.334l-.223.31a1.715 1.715 0 0 0-.326.771 1.63 1.63 0 0 0-.004.455 1.79 1.79 0 0 0 .382.879c.08.103.192.157.286.237.23.196.509.264.797.314a.559.559 0 0 0 .176-.008.315.315 0 0 1 .176-.002.149.149 0 0 0 .105-.003 1.953 1.953 0 0 0 .916-.534 6.381 6.381 0 0 0 .501-.669l.83-1.188c.165-.245.3-.507.327-.809.048-.546-.093-1.032-.502-1.408a1.313 1.313 0 0 0-.476-.307.218.218 0 0 1-.145-.168c-.018-.148-.078-.289-.05-.454a1.352 1.352 0 0 1 .336-.67 2.262 2.262 0 0 0 .239-.306.298.298 0 0 1 .321-.141.538.538 0 0 1 .312.119c.085.078.201.095.295.161a3.852 3.852 0 0 1 1.021 1.043 3.946 3.946 0 0 1 .354.695c.133.325.169.669.21 1.005a2.763 2.763 0 0 1-.06.905 3.697 3.697 0 0 1-.263.782 3.078 3.078 0 0 1-.257.462l-1.438 2.051a3.442 3.442 0 0 1-.639.631 3.505 3.505 0 0 1-.935.516c-.185.073-.397.078-.596.113z"/><rect width="1.77" height="4.491" x="6.327" y="4.957" rx=".885" transform="rotate(350)"/><rect width="1.77" height="4.491" x="-11.219" y="1.836" rx=".885" transform="rotate(260)"/><path d="M19.459.161L2.527.166a1.563 1.654 0 0 0-1.561 1.34 2.686 2.842 0 0 0-.047.574v15.403.451c.001.319.053.257.053.576.012-.003.021.002.028.01a2.602 2.752 0 0 0-.017-.277.382.404 0 0 0 .054.183c.315.611.798.947 1.457.958l2.574-.004a.905.958 0 0 1 .813.415l1.185 1.607c.19.259.425.438.747.438h6.395a.754.798 0 0 0 .497-.199 1.936 2.049 0 0 0 .284-.312l1.197-1.619a.719.761 0 0 1 .626-.327h2.677c.8-.005 1.415-.526 1.582-1.353l.006-1.443.004-14.738A1.587 1.679 0 0 0 19.459.161zM1 18.519a2.602 2.752 0 0 1-.005.211c0 .052.047-.162.005-.211zM3.548 2.115h14.863c.188 0 .375.019.545.134.202.134.276.341.306.576a.679.727 0 0 1 0 .096v13.879a.758.811 0 0 1-.312.661.538.576 0 0 1-.35.111h-2.714a.737.789 0 0 0-.612.305l-.458.631-.781 1.049a.583.624 0 0 1-.467.201h-1.38-3.254c-.109 0-.219.014-.327.019a.641.687 0 0 1-.563-.268 31.63 31.63 0 0 0-.807-1.109l-.381-.513c-.16-.195-.341-.315-.591-.314-.89.003-1.779-.005-2.669.004a.717.768 0 0 1-.719-.779v-5.269-1.718-6.947c-.056-.402.312-.746.674-.75z"/></svg>