<svg xmlns="http://www.w3.org/2000/svg" xmlns:xlink="http://www.w3.org/1999/xlink" width="22" height="22" xmlns:v="https://vecta.io/nano"><g fill="#fff" transform="matrix(.068736 0 0 .068736 .002171 .002137)"><path d="M103.576 7.711c-16.534 0-29.846 13.312-29.846 29.846v244.887c0 16.534 13.312 29.846 29.846 29.846h112.848c16.534 0 29.846-13.312 29.846-29.846V37.557c0-16.534-13.312-29.846-29.846-29.846zm16.371 22.369a21.777 21.777 0 1 1 0 43.553 21.777 21.777 0 1 1 0-43.553zM60.449 42.795l-17.031.201-17.084.201-.187 5.049c-.179 4.817-.267 5.068-1.916 5.441-.946.214-10.619.805-21.527 1.314v14.076.082 14.076l21.527 1.314c1.649.374 1.737.624 1.916 5.441l.188 5.049 17.084.201 17.031.201v-26.28-.082z"/><use xlink:href="#A"/><use xlink:href="#A" y="90.881"/><path d="M259.55 42.795l17.031.201 17.084.201.188 5.049c.179 4.817.267 5.068 1.916 5.441.946.214 10.619.805 21.527 1.314v14.076.082 14.076l-21.527 1.314c-1.649.374-1.737.624-1.916 5.441l-.187 5.049-17.084.201-17.031.201V69.16v-.082z"/><use xlink:href="#B"/><use xlink:href="#B" y="90.88"/></g><defs><path id="A" d="M60.449 133.676l-17.031.201-17.084.201-.187 5.049c-.179 4.817-.267 5.068-1.916 5.441-.946.214-10.619.805-21.527 1.314v14.076.082 14.076l21.527 1.314c1.649.374 1.737.624 1.916 5.441l.188 5.049 17.084.201 17.031.201v-26.283-.082z"/><path id="B" d="M259.55 133.676l17.031.201 17.084.201.188 5.049c.179 4.817.267 5.068 1.916 5.441.946.214 10.619.805 21.527 1.314v14.076.082 14.076l-21.527 1.314c-1.649.374-1.737.624-1.916 5.441l-.187 5.049-17.084.201-17.031.201v-26.283-.082z"/></defs></svg>