<svg xmlns="http://www.w3.org/2000/svg" width="64" height="64" xmlns:v="https://vecta.io/nano"><path d="M2.578 51.387V19.707c0-2.058 2.521-3.946 4.47-4.779 2.971-.491 5.983-8.279 9.336-8.667l13.086-.018c3.377 0 6.572 4.689 7.972 6.329.657.62 1.822 1.082 2.741 1.125l15.548.305c3.018.079 6.242 3.576 6.28 7.102.055 3.554-.015 17.577-.024 28.036.015 4.781-4.098 7.345-6.708 7.346l-46.95.033c-3.166-.018-5.734-2.751-5.749-5.132zm54.128-19.955c-.196-2.401-2.137-3.762-4.654-3.786-12.722-.022-27.883-.09-40.603.045-2.599-.144-4.06 1.268-4.113 3.833-.032 5.512.09 10.589.264 16.098.045 2.477.54 3.964 3.837 4.089l41.702-.11c3.399-.069 3.466-1.257 3.528-3.875l.039-16.294zm-.286-8.914c.26-1.704-1.684-3.585-3.303-3.594l-14.588-.048c-5.084-.018-7.643-7.817-9.967-7.8-2.342-.073-9.878.098-11.061.043-2.173-.016-3.15 4.633-4.918 6.114-1.608 1.455-6.068 2.341-5.255 5.204 16.41-.421 33.865-.059 49.092.08z" fill="#fff"/></svg>