<svg xmlns="http://www.w3.org/2000/svg" viewBox="0 0 1024 1024" width="20" height="20" fill="#fff" xmlns:v="https://vecta.io/nano"><path d="M398.85 23.55c-28.16 0-51.2 23.04-51.2 51.2v77.3h-60.4c-74.752 0-135.7 60.948-135.7 135.7v60.4h-76.8c-28.16 0-51.2 23.04-51.2 51.2s23.04 51.2 51.2 51.2h76.8v122.8h-76.8c-28.16 0-51.2 23.04-51.2 51.2s23.04 51.2 51.2 51.2h76.8v61c0 74.752 60.948 135.7 135.7 135.7h60.4v76.8c0 28.16 23.04 51.2 51.2 51.2 28.672 0 51.2-22.528 51.2-51.2v-76.8h122.9v76.8c0 28.16 23.04 51.2 51.2 51.2 28.672 0 51.2-22.528 51.2-51.2v-76.8h61c74.752 0 135.6-60.948 135.6-135.7v-61h77.3c28.16 0 51.2-23.04 51.2-51.2s-23.04-51.2-51.2-51.2h-77.3v-122.8h77.3c28.16 0 51.2-23.04 51.2-51.2s-23.04-51.2-51.2-51.2h-77.3v-60.4c0-74.752-60.848-135.7-135.6-135.7h-61v-77.3c0-28.16-23.04-51.2-51.2-51.2s-51.2 23.04-51.2 51.2v77.3h-122.9v-77.3c0-28.16-23.04-51.2-51.2-51.2zm-111.6 230.4v.5h449.1c17.92 0 33.2 15.38 33.2 33.3v448.5c0 17.92-15.28 33.2-33.2 33.2h-449.1c-17.92 0-33.3-15.28-33.3-33.2v-449.1c0-17.92 15.38-33.2 33.3-33.2zM584 668.208H442.2v65.4H584zM512.5 298.7L314.4 530.6h127.8V633H584V531.2l125.6-.6-197.1-231.9z"/></svg>